# xmcd
#
# Track frame offsets: 
#        150
#        16417
#        36157
#        56295
#        72882
#        86987
#        101992
#        115297
#        129977
#        144355
#        158367
#        176667
#        194520
#        211205
#        228145
#        244510
#        264810
#        280310
#        294547
#        313757
#        329675
#
# Disc length: 4640 seconds
#
# Revision: 2
# Processed by: cddbd v1.5.2PL0 Copyright (c) Steve Scherf et al.
# Submitted via: ExactAudioCopy v1.0b3
#
DISCID=2d121e15
DTITLE=Various Artist - Radio 2 Country Hits CD1
DYEAR=2000
DGENRE=Country
TTITLE0=Shania Twain - Don't Be Stupid
TTITLE1=The Mavericks - Dance The Night Away
TTITLE2=Lonestar - Amazed
TTITLE3=Keith Whiteley - When You Say Nothing At All
TTITLE4=Leann Rimes - Big Deal
TTITLE5=Alabama - God Must Have Spend A Little More
TTITLE6=Sara Evans - Cryin' Game
TTITLE7=Jo Dee Messina - I'm Alright
TTITLE8=Dixie Chicks - There's Your Trouble
TTITLE9=Alan Jackson - Pop A Top
TTITLE10=Mary-Chapin Carpenter - He Thinks He'll Keep Her
TTITLE11=Tim McGraw - Some Things Never Change
TTITLE12=Shedaisy - I Will, But
TTITLE13=Brad Paisley - Who Needs Pictures
TTITLE14=Sherrie Austin - Never Been Kissed
TTITLE15=Clint Black - When I Said I Do
TTITLE16=Martina McBride - Independence Day
TTITLE17=Kenny Chesney - How Forever Feels
TTITLE18=Mindy McCready - Oh Romeo
TTITLE19=Andy Griggs - You Won't Ever Be Lonely
TTITLE20=Phil Vasser - Carlene
EXTD=
EXTT0=
EXTT1=
EXTT2=
EXTT3=
EXTT4=
EXTT5=
EXTT6=
EXTT7=
EXTT8=
EXTT9=
EXTT10=
EXTT11=
EXTT12=
EXTT13=
EXTT14=
EXTT15=
EXTT16=
EXTT17=
EXTT18=
EXTT19=
EXTT20=
PLAYORDER=
